<?xml version="1.0" encoding="utf-8"?>
<!-- Generator: Adobe Illustrator 16.0.0, SVG Export Plug-In . SVG Version: 6.00 Build 0)  -->
<!DOCTYPE svg PUBLIC "-//W3C//DTD SVG 1.1//EN" "http://www.w3.org/Graphics/SVG/1.1/DTD/svg11.dtd">
<svg version="1.1" id="Capa_1" xmlns="http://www.w3.org/2000/svg" xmlns:xlink="http://www.w3.org/1999/xlink" x="0px" y="0px"
	 width="100px" height="100px" viewBox="0 0 100 100" enable-background="new 0 0 100 100" xml:space="preserve">
<g>
	<g opacity="0.2">
		<path fill="#1D1D1B" d="M38.566,43.199C39.272,43.111,37.407,43.343,38.566,43.199L38.566,43.199z"/>
		<path fill="#1D1D1B" d="M46.54,58.172C46.692,58.095,46.861,58.014,46.54,58.172L46.54,58.172z"/>
		<path fill="#1D1D1B" d="M97.244,77.393c-0.758-1.677-2.781-2.694-4.792-3.719c-4.659-2.377-9.776-4.425-14.715-6.557
			c-5.496-2.368-10.719-4.901-16.699-6.829c-2.958-0.953-5.7-1.75-8.987-2.21c-3.79-0.529-5.258-0.019-5.583,0.129
			c-0.028,0.012-0.041,0.02-0.074,0.034c-1.365,0.672-2.761,1.775-3.881,3.054c-1.322-0.401-2.603-0.827-4.003-1.136
			c-1.917-0.424-6.154-2.258-6.124-3.72c0.054-2.442,2.177-2.904,4.483-4.459c0.893-0.603,4.083-1.369,2.523-2.146
			c-1.58-0.785-3.36-0.683-5.149-1.091c1.564-1.618,4.662-2.746,6.624-4.182c2.302-1.679-0.125-1.634-2.301-1.364
			c-1.097,0.137-2.2,0.272-3.278,0.494c-1.254,0.259-2.542,0.818-3.744,1.03c-0.959-1.255-2.022-2.332-3.452-0.464
			c-1.18,1.539-2.023,3.308-2.556,4.962c-0.537,1.659-0.293,3.381,0.491,4.926c0.556,1.097,2.083,2.174,2.406,3.278
			c-3.672-1.844-7.262-3.794-8.588-6.846c-0.202-0.461-0.401-3.224-1.96-2.194c-1.549,1.025-1.383,2.389-2.126,3.611
			c-3.043-1.969-4.513-4.514-8.253-6.083c-2.235-0.939-1.6,1.701-1.511,2.586c0.096,0.911,0.396,1.796,0.755,2.666
			c0.255,0.612,1.152,1.564,0.99,2.232c-0.798-0.105-6.185-0.188-5.601,0.998c0.5,1.013,4.805,1.698,6.174,2.033
			c2.91,0.712,5.937,1.201,8.873,1.876c3.269,0.751,6.35,1.937,9.439,2.927c3.631,1.161,7.069,2.013,10.99,2.584l-3.758-0.518
			c-6.2,0.204-11.468-0.724-16.844,2.219c-1.641,0.896-4.841,2.814-4.556,4.394c0.112,0.621,4.877-1.485,5.802-1.257
			c-0.533,2.311,1.066,6.078,3.386,7.735c2.086,1.493,1.921-1.204,2.295-2.162c0.646-1.652,1.782-3.238,3.063-4.743
			c0.134,1.077,0.519,2.726,1.873,3.434c1.279,0.668,2.206-2.991,2.626-3.682c0.833-1.37,2.096-2.249,3.692-3.235
			c0.954-0.588,1.771-0.892,2.926-1.294c0.901-0.313,1.679-0.221,2.474-0.339c-0.666,1.773-0.517,3.523,1.114,4.728
			c3.736,2.773,11.418,3.35,16.547,4.599c5.68,1.379,11.29,2.75,17.123,3.894c5.468,1.068,11.566,2.469,17.43,2.557
			C95.399,80.18,98.119,79.327,97.244,77.393z"/>
	</g>
	<g>
		<g>
			<path fill="#2D5B28" d="M35.431,49.983c-6.023,0.04-11.188-1.573-16.291,2.587c-1.558,1.269-4.59,3.996-4.243,6.368
				c0.135,0.933,4.681-2.009,5.59-1.627c-0.418,3.43,1.301,9.127,3.628,11.701c2.094,2.319,1.817-1.717,2.141-3.133
				c0.557-2.439,1.592-4.76,2.774-6.953c0.178,1.616,0.623,4.095,1.971,5.212c1.272,1.054,2.017-4.374,2.396-5.39
				c0.751-2.008,1.943-3.267,3.452-4.67c0.902-0.84,1.686-1.257,2.793-1.808c1.013-0.507,1.887-0.175,2.794-0.51L35.431,49.983z"/>
			<path fill="#418232" d="M39.143,20.166c-1.062,0.156-2.128,0.31-3.167,0.596c-1.208,0.334-2.439,1.112-3.599,1.375
				c-0.989-1.914-2.068-3.57-3.378-0.842c-1.082,2.248-1.826,4.856-2.272,7.304c-0.449,2.456-0.138,5.038,0.691,7.379
				c0.589,1.665,2.121,3.339,2.483,5.002C26.25,38.069,22.672,35,21.249,30.381c-0.216-0.695-0.528-4.833-2-3.362
				c-1.462,1.466-1.243,3.511-1.914,5.306c-3.045-3.076-4.585-6.94-8.293-9.447c-2.214-1.498-1.482,2.471-1.356,3.799
				c0.131,1.365,0.462,2.701,0.849,4.014c0.275,0.928,1.189,2.39,1.06,3.38c-0.782-0.194-6.025-0.546-5.406,1.249
				c0.531,1.535,4.749,2.744,6.095,3.303c2.861,1.189,5.829,2.05,8.712,3.185c3.212,1.262,6.262,3.167,9.311,4.777
				c3.74,1.977,7.256,3.442,11.306,4.469c0.628,0.164,2.694,1.135,3.11,0.361c0.648-1.2,1.294-2.403,1.939-3.604
				c-1.633-0.771-3.149-1.67-4.839-2.312c-1.884-0.714-6.086-3.637-6.119-5.82c-0.055-3.645,1.992-4.245,4.169-6.467
				c0.841-0.862,3.913-1.87,2.361-3.099c-1.569-1.239-3.299-1.164-5.057-1.85c1.451-2.35,4.416-3.9,6.264-5.96
				C43.607,19.892,41.25,19.854,39.143,20.166C38.022,20.331,39.828,20.064,39.143,20.166z"/>
		</g>
		<path fill-rule="evenodd" clip-rule="evenodd" fill="#E75433" d="M47.41,42.977c0,0,1.217-1.104,5.496-0.001
			c3.217,0.828,5.919,2.137,8.838,3.688c5.903,3.136,11.093,7.146,16.545,10.919c4.896,3.397,9.961,6.675,14.599,10.427
			c2,1.618,4.012,3.227,4.823,5.762c0.936,2.928-1.674,4.085-4.195,3.914c-5.71-0.383-11.703-2.736-17.069-4.57
			c-5.723-1.957-11.242-4.247-16.828-6.554c-5.044-2.086-12.54-3.274-16.296-7.578C39.422,54.526,43.486,45.818,47.41,42.977
			C48.134,42.45,47.41,42.977,47.41,42.977z"/>
		<path fill="#D43D20" d="M47.116,43.927c0.971-0.926,3.497-0.954,2.702,0.005c-3.69,4.441-7.037,11.418,1.176,14.517
			c3.625,1.368,4.741-4.866,4.741-4.866s1.169-0.085,1.187,0.695c0.016,0.651-1.478,4.305-1.287,5.308
			c0.19,1.002,1.173,1.254,1.736,1.553s2.322-4.985,2.357-5.316c0.04-0.334,0.582,0.064,0.866,0.269
			c0.285,0.205-1.346,3.521-1.368,4.644c-0.021,1.124,0.352,1.518,1.441,1.869c1.087,0.351,1.386-1.251,2.248-2.502
			c0.864-1.25,1.003-2.271,1.542-1.89c0.54,0.382,0.498,0.139-0.149,1.843c-0.646,1.705-1.62,3.191-0.953,3.665
			c1.313,0.926,1.544,0.76,1.785,0.467c1.21-1.46,1.948-5.185,3.299-4.422c0.549,0.309-1.736,3.724-1.653,4.785
			c0.084,1.062,1.313,1.219,1.478,1.207c0.161-0.009,2.593,0.979,5.185,1.895c2.59,0.917,19.119,8.63,22.352,7.752
			c0.835-0.225,1.686-0.661,1.607-0.294c-0.11,0.516-0.926,1.356-1.407,1.564c-1.387,0.604-4.556-0.082-6.033-0.398
			C79.26,73.98,61.525,66.446,52.061,62.949c-1.952-0.723-5.244-1.544-7.895-4.381c-0.747-0.799-1.653-2.954-1.659-4.047
			C42.505,54.027,42.526,48.315,47.116,43.927z"/>
	</g>
</g>
</svg>
