<?xml version="1.0" encoding="utf-8"?>
<!-- Generator: Adobe Illustrator 16.0.0, SVG Export Plug-In . SVG Version: 6.00 Build 0)  -->
<!DOCTYPE svg PUBLIC "-//W3C//DTD SVG 1.1//EN" "http://www.w3.org/Graphics/SVG/1.1/DTD/svg11.dtd">
<svg version="1.1" id="Capa_1" xmlns="http://www.w3.org/2000/svg" xmlns:xlink="http://www.w3.org/1999/xlink" x="0px" y="0px"
	 width="100px" height="100px" viewBox="0 0 100 100" enable-background="new 0 0 100 100" xml:space="preserve">
<g>
	<path opacity="0.2" d="M95.101,78.876c-1.78-4.305-11.002-7.358-34.625-7.358c-19.466,0-39.762-2.705-46.311-1.109l-8.373-4.225
		c0,0-2.193,1.221-1.107,3.225c0.769,1.42,4.97,2.445,7.354,2.922c1.206,4.792,37.202,18.561,60.373,17.227
		C94.776,88.267,96.956,83.359,95.101,78.876z"/>
	<g>
		<path fill-rule="evenodd" clip-rule="evenodd" fill="#1E3156" d="M30.461,25.651c8.671-1.193,17.312,6.33,25.189,8.922
			c8.82,2.901,18.872,2.025,27.096,6.664c16.405,9.253,14.797,32.082-0.973,41.395c-16.256,9.604-36.938-1.326-46.387-15.244
			c-4.6-6.784-12.656-13.441-13.572-22.029C21.122,38.854,21.85,26.851,30.461,25.651C31.672,25.482,28.598,25.909,30.461,25.651z"
			/>
		<path fill-rule="evenodd" clip-rule="evenodd" fill="#6BC04B" d="M21.412,24.425c4.963-4.451,27.662,3.181,24.724,7.718
			c-4.672,0.608-10.002-1.608-15.057-0.929c1.265,2.244,10.42,13.145,7.158,16.081c-3.786,0.344-10.303-7.568-13.662-9.203
			c-1.533,3.079,1.55,11.834-0.467,13.665c-4.125,0.46-6.865-12.076-7.065-14.963c-0.233-3.468,1.984-6.325-0.768-8.708
			c-2.395-2.074-4.528-4.963-6.268-7.601c-0.744-1.128-4.454-4.178-3.138-5.6c0.547-0.593,4.385-5.124,5.083-4.467
			C15.717,13.941,16.938,21.398,21.412,24.425C22.52,23.431,20.936,24.101,21.412,24.425z"/>
	</g>
	<path fill="#FFFFFF" d="M64.901,39.873c0,0,10.341,0.164,15.023,5.934c4.683,5.772,4.683,7.139,4.683,7.139l-5.073,1.028
		c0,0-1.169-3.672-7.023-6.349c-5.854-2.68-10.537-4.582-10.537-4.582l2.146-3.17"/>
</g>
</svg>
