<?xml version="1.0" encoding="utf-8"?>
<!-- Generator: Adobe Illustrator 16.0.0, SVG Export Plug-In . SVG Version: 6.00 Build 0)  -->
<!DOCTYPE svg PUBLIC "-//W3C//DTD SVG 1.1//EN" "http://www.w3.org/Graphics/SVG/1.1/DTD/svg11.dtd">
<svg version="1.1" id="Capa_1" xmlns="http://www.w3.org/2000/svg" xmlns:xlink="http://www.w3.org/1999/xlink" x="0px" y="0px"
	 width="100px" height="100px" viewBox="0 0 100 100" enable-background="new 0 0 100 100" xml:space="preserve">
<g>
	<ellipse opacity="0.2" fill="#1D1D1B" cx="50" cy="92.524" rx="22.735" ry="5.874"/>
	<g>
		<g>
			<path fill="#FFFFFF" d="M31.225,27.001c-2.43,11.486-0.651,22.594-0.823,42.634c-0.168,20.042,2.921,24.119,9.946,24.907
				c7.025,0.791,18.975,1.429,23.981-0.639c5.007-2.065,3.836-2.787,4.469-19.516c0.646-17.064,1.936-40.284-0.482-49.115
				c-1.969-7.185-9.767-11.534-9.767-11.534c0.234-4.091-0.363-5.561-0.363-5.561l-17.42,0.068l0.021,5.482
				C40.788,13.729,33.028,18.498,31.225,27.001z"/>
			<path fill="#DFDEDD" d="M41.659,12.732l0.004,1.359c0,0-2.97,2.229-4.378,3.901c-0.606,0.721-2.762,3.985-2.762,3.985
				l31.07-0.125c0,0-0.081-1.206-4.704-5.292c-0.894-0.787-3.327-2.469-3.327-2.469l-0.07-1.422l-4.801-2.312l-10.359,0.038
				L41.659,12.732z"/>
			<g>
				<path fill-rule="evenodd" clip-rule="evenodd" fill="#1D1D1B" d="M59.202,3.27c0.001,0.375,0.307,8.471-0.207,8.668
					c-2.08,0.821-4.668,0.797-6.998,0.965c-2.071,0.147-4.376,0.128-6.448-0.113c-1.948-0.225-3.481-0.223-5.155-0.827
					c-0.563-0.2-0.433-0.391-0.469-0.756c-0.061-0.646-0.057-7.652-0.057-7.701c-0.004-0.782,2.627,1.391,3.627,1.626
					c0.902,0.211,2.077-0.048,3.021-0.019c2.373,0.065,4.691-0.007,7.06-0.125c1.255-0.059,2.5-0.197,3.724-0.403
					C58.011,4.464,58.43,3.221,59.202,3.27z"/>
				<path fill-rule="evenodd" clip-rule="evenodd" fill="#949494" d="M40.517,4.344c-1.285-0.841-0.516-1.745,1.009-2.12
					c1.931-0.47,4.327-0.539,6.337-0.597c2.062-0.054,4.087-0.005,6.14,0.103c1.278,0.07,4.008,0.153,4.895,1.023
					c1.882,1.842-4.82,2.619-6.248,2.603c-3.889-0.043-8.209,0.408-11.28-0.573C41.133,4.702,40.517,4.344,40.517,4.344z"/>
			</g>
			<g>
				<defs>
					<path id="SVGID_1_" d="M31.225,27.001c-2.43,11.486-1.591,22.598-1.763,42.639c-0.17,20.039,1.039,24.125,8.064,24.914
						c7.024,0.788,22.735,1.41,27.744-0.655c5.006-2.065,3.835-2.782,4.47-19.516c0.646-17.063,0.993-40.279-1.425-49.11
						c-1.969-7.185-9.767-11.534-9.767-11.534c0.234-4.091-0.363-5.561-0.363-5.561l-17.42,0.068l0.021,5.482
						C40.788,13.729,33.028,18.498,31.225,27.001z"/>
				</defs>
				<clipPath id="SVGID_2_">
					<use xlink:href="#SVGID_1_"  overflow="visible"/>
				</clipPath>
				<path clip-path="url(#SVGID_2_)" fill="#E75433" d="M25.554,22.012c0,0,11.765-2.514,24.493-2.564
					c12.681-0.052,21.359,2.38,21.359,2.38l1.293,80.358l-46.82,0.73L25.554,22.012z"/>
				<path clip-path="url(#SVGID_2_)" fill="#FFFFFF" d="M80.126,74.898c0,0-18.35,4.62-29.098,4.827
					c-11.284,0.212-39.869-4.549-39.869-4.549l-0.154-38.036c0,0,28.013,3.678,39.127,3.463c10.223-0.197,29.843-3.741,29.843-3.741
					L80.126,74.898z"/>
			</g>
		</g>
		<path fill="#D6D4D4" d="M40.155,77.57L40.02,41.532c0,0-2.529-0.248-5.421-0.554c-2.895-0.31-4.188-0.501-4.188-0.501
			s-0.271,9.589,0.074,15.674c0.343,6.088,0.01,20.302,0.01,20.302s1.865,0.869,4.252,1.138"/>
	</g>
</g>
</svg>
