<?xml version="1.0" encoding="utf-8"?>
<!-- Generator: Adobe Illustrator 16.0.0, SVG Export Plug-In . SVG Version: 6.00 Build 0)  -->
<!DOCTYPE svg PUBLIC "-//W3C//DTD SVG 1.1//EN" "http://www.w3.org/Graphics/SVG/1.1/DTD/svg11.dtd">
<svg version="1.1" id="Capa_1" xmlns="http://www.w3.org/2000/svg" xmlns:xlink="http://www.w3.org/1999/xlink" x="0px" y="0px"
	 width="100px" height="100px" viewBox="0 0 100 100" enable-background="new 0 0 100 100" xml:space="preserve">
<g>
	<path opacity="0.2" fill="#1D1D1B" d="M86.909,82.19c0-6.582-15.694-11.924-35.054-11.924c-19.361,0-35.058,5.342-35.058,11.924
		s15.697,11.92,35.058,11.92C71.214,94.11,86.909,88.772,86.909,82.19z"/>
	<g>
		<path fill-rule="evenodd" clip-rule="evenodd" fill="#6BC04B" d="M63.54,17.451c11.998-0.167,20.305,7.168,24.185,18.236
			c3.203,9.147-1.47,22.735-6.571,30.426c-3.567,5.397-7.513,14.151-14.33,16.153c-5.182,1.528-8.382,0.434-13.339-0.915
			c-4.315-1.176-8.989,2.963-13.366,3.571c-4.547,0.617-9.057-5.167-11.953-8.038c-3.774-3.747-6.442-8.314-9.006-12.957
			c-4.867-8.823-9.874-19.725-7.175-29.972c2.624-9.928,14.336-16.893,23.543-10.671c4.871,3.286,8.526,6.063,13.583,1.302
			C53.281,20.669,57.573,17.532,63.54,17.451C65.218,17.428,56.006,17.545,63.54,17.451z"/>
		<path fill-rule="evenodd" clip-rule="evenodd" d="M46.489,43.364"/>
		<path fill-rule="evenodd" clip-rule="evenodd" fill="#6BC04B" d="M50.385,13.452"/>
		<path fill-rule="evenodd" clip-rule="evenodd" fill="#1E3156" d="M43.997,27.959c-0.591-0.451-0.416-2.592-0.651-3.282
			c-0.43-1.28-0.76-3.286-1.157-4.58c-0.742-2.471-1.581-4.184-2.462-6.6c-0.718-1.984-1.536-3.643-2.237-5.622
			C37,6.509,39.559,6.432,40.364,6.171c2.91-0.951,2.385,0.613,2.976,3.309c0.502,2.299,0.906,4.625,1.361,6.911
			C45.142,18.546,48.88,28.812,43.997,27.959C43.523,27.599,44.904,28.113,43.997,27.959z"/>
		<path fill-rule="evenodd" clip-rule="evenodd" fill="#33A64A" d="M25.321,22.825c-8.549,3.214-4.584,14.995-2.633,23.353
			c2.404,10.305,6.824,19.697,17.263,23.691c3.596,1.376,7.526,2.533,11.319,1.289c3.912-1.28,7.003-1.997,11.229-1.204
			c3.603,0.687,8.476,4.005,12.014,1.926c2.911-1.695,5.156-4.707,6.986-7.479c-3.528,4.702-7.847,10.428-12.006,14.585
			c-6.039,6.055-11.934-0.88-18.505,0.405c-3.48,0.681-6.626,3.314-10.213,3.517c-3.287,0.188-4.245-1.465-6.894-3.26
			c-9.743-6.604-16.656-22.663-19.929-33.753C10.511,34.235,16.411,26.174,25.321,22.825z"/>
		<path fill="#FFFFFF" d="M67.37,31.278c0,0,5.168-0.676,5.104,7.484c-0.063,8.16-1.624,11.275-1.624,11.275
			s3.598,6.032,6.363-3.404c2.77-9.44,2.984-12.046-0.954-15.892C72.32,26.905,67.37,31.278,67.37,31.278z"/>
	</g>
</g>
</svg>
