<?xml version="1.0" encoding="UTF-8" standalone="no"?>
<!-- Generator: Adobe Illustrator 16.0.0, SVG Export Plug-In . SVG Version: 6.00 Build 0)  -->

<svg
   xmlns:dc="http://purl.org/dc/elements/1.1/"
   xmlns:cc="http://creativecommons.org/ns#"
   xmlns:rdf="http://www.w3.org/1999/02/22-rdf-syntax-ns#"
   xmlns:svg="http://www.w3.org/2000/svg"
   xmlns="http://www.w3.org/2000/svg"
   xmlns:xlink="http://www.w3.org/1999/xlink"
   xmlns:sodipodi="http://sodipodi.sourceforge.net/DTD/sodipodi-0.dtd"
   xmlns:inkscape="http://www.inkscape.org/namespaces/inkscape"
   version="1.1"
   id="Capa_1"
   x="0"
   y="0"
   width="236.02209"
   height="502.42603"
   viewBox="0 0 236.02209 502.42603"
   enable-background="new 0 0 100 100"
   xml:space="preserve"
   inkscape:version="0.91 r13725"
   sodipodi:docname="bottle-mdpi.svg"><metadata
     id="metadata39"><rdf:RDF><cc:Work
         rdf:about=""><dc:format>image/svg+xml</dc:format><dc:type
           rdf:resource="http://purl.org/dc/dcmitype/StillImage" /><dc:title></dc:title></cc:Work></rdf:RDF></metadata><defs
     id="defs37" /><sodipodi:namedview
     pagecolor="#ffffff"
     bordercolor="#666666"
     borderopacity="1"
     objecttolerance="10"
     gridtolerance="10"
     guidetolerance="10"
     inkscape:pageopacity="0"
     inkscape:pageshadow="2"
     inkscape:window-width="1485"
     inkscape:window-height="912"
     id="namedview35"
     showgrid="false"
     fit-margin-top="0"
     fit-margin-left="0"
     fit-margin-right="0"
     fit-margin-bottom="0"
     inkscape:zoom="0.49497475"
     inkscape:cx="43.256748"
     inkscape:cy="111.90807"
     inkscape:window-x="65"
     inkscape:window-y="24"
     inkscape:window-maximized="0"
     inkscape:current-layer="Capa_1" /><g
     id="g3"
     transform="matrix(5.1907212,0,0,5.1907212,-141.52501,-8.3305847)"><ellipse
       cx="50"
       cy="92.524002"
       rx="22.735001"
       ry="5.8740001"
       id="ellipse5"
       style="opacity:0.2;fill:#1d1d1b" /><g
       id="g7"><g
         id="g9"><path
           d="m 31.225,27.001 c -2.43,11.486 -0.651,22.594 -0.823,42.634 -0.168,20.042 2.921,24.119 9.946,24.907 7.025,0.791 18.975,1.429 23.981,-0.639 5.007,-2.065 3.836,-2.787 4.469,-19.516 C 69.444,57.323 70.734,34.103 68.316,25.272 66.347,18.087 58.549,13.738 58.549,13.738 58.783,9.647 58.186,8.177 58.186,8.177 l -17.42,0.068 0.021,5.482 c 10e-4,0.002 -7.759,4.771 -9.562,13.274 z"
           id="path11"
           inkscape:connector-curvature="0"
           style="fill:#ffffff" /><path
           d="m 41.659,12.732 0.004,1.359 c 0,0 -2.97,2.229 -4.378,3.901 -0.606,0.721 -2.762,3.985 -2.762,3.985 l 31.07,-0.125 c 0,0 -0.081,-1.206 -4.704,-5.292 -0.894,-0.787 -3.327,-2.469 -3.327,-2.469 l -0.07,-1.422 -4.801,-2.312 -10.359,0.038 -0.673,2.337 z"
           id="path13"
           inkscape:connector-curvature="0"
           style="fill:#dfdedd" /><g
           id="g15"><path
             d="m 59.202,3.27 c 0.001,0.375 0.307,8.471 -0.207,8.668 -2.08,0.821 -4.668,0.797 -6.998,0.965 -2.071,0.147 -4.376,0.128 -6.448,-0.113 -1.948,-0.225 -3.481,-0.223 -5.155,-0.827 -0.563,-0.2 -0.433,-0.391 -0.469,-0.756 -0.061,-0.646 -0.057,-7.652 -0.057,-7.701 -0.004,-0.782 2.627,1.391 3.627,1.626 0.902,0.211 2.077,-0.048 3.021,-0.019 2.373,0.065 4.691,-0.007 7.06,-0.125 1.255,-0.059 2.5,-0.197 3.724,-0.403 0.711,-0.121 1.13,-1.364 1.902,-1.315 z"
             id="path17"
             inkscape:connector-curvature="0"
             style="clip-rule:evenodd;fill:#1d1d1b;fill-rule:evenodd" /><path
             d="M 40.517,4.344 C 39.232,3.503 40.001,2.599 41.526,2.224 43.457,1.754 45.853,1.685 47.863,1.627 49.925,1.573 51.95,1.622 54.003,1.73 55.281,1.8 58.011,1.883 58.898,2.753 60.78,4.595 54.078,5.372 52.65,5.356 48.761,5.313 44.441,5.764 41.37,4.783 41.133,4.702 40.517,4.344 40.517,4.344 Z"
             id="path19"
             inkscape:connector-curvature="0"
             style="clip-rule:evenodd;fill:#949494;fill-rule:evenodd" /></g><g
           id="g21"><defs
             id="defs23"><path
               id="SVGID_1_"
               d="m 31.225,27.001 c -2.43,11.486 -1.591,22.598 -1.763,42.639 -0.17,20.039 1.039,24.125 8.064,24.914 7.024,0.788 22.735,1.41 27.744,-0.655 5.006,-2.065 3.835,-2.782 4.47,-19.516 C 70.386,57.32 70.733,34.104 68.315,25.273 66.346,18.088 58.548,13.739 58.548,13.739 58.782,9.648 58.185,8.178 58.185,8.178 l -17.42,0.068 0.021,5.482 c 0.002,10e-4 -7.758,4.77 -9.561,13.273 z"
               inkscape:connector-curvature="0" /></defs><clipPath
             id="SVGID_2_"><use
               xlink:href="#SVGID_1_"
               overflow="visible"
               id="use27"
               style="overflow:visible"
               x="0"
               y="0"
               width="100%"
               height="100%" /></clipPath><path
             clip-path="url(#SVGID_2_)"
             d="m 25.554,22.012 c 0,0 11.765,-2.514 24.493,-2.564 12.681,-0.052 21.359,2.38 21.359,2.38 l 1.293,80.358 -46.82,0.73 -0.325,-80.904 z"
             id="path29"
             inkscape:connector-curvature="0"
             style="fill:#e75433" /><path
             clip-path="url(#SVGID_2_)"
             d="m 80.126,74.898 c 0,0 -18.35,4.62 -29.098,4.827 C 39.744,79.937 11.159,75.176 11.159,75.176 L 11.005,37.14 c 0,0 28.013,3.678 39.127,3.463 10.223,-0.197 29.843,-3.741 29.843,-3.741 l 0.151,38.036 z"
             id="path31"
             inkscape:connector-curvature="0"
             style="fill:#ffffff" /></g></g><path
         d="M 40.155,77.57 40.02,41.532 c 0,0 -2.529,-0.248 -5.421,-0.554 -2.895,-0.31 -4.188,-0.501 -4.188,-0.501 0,0 -0.271,9.589 0.074,15.674 0.343,6.088 0.01,20.302 0.01,20.302 0,0 1.865,0.869 4.252,1.138"
         id="path33"
         inkscape:connector-curvature="0"
         style="fill:#d6d4d4" /></g></g></svg>