<?xml version="1.0" encoding="UTF-8" standalone="no"?>
<!-- Generator: Adobe Illustrator 16.0.0, SVG Export Plug-In . SVG Version: 6.00 Build 0)  -->

<svg
   xmlns:dc="http://purl.org/dc/elements/1.1/"
   xmlns:cc="http://creativecommons.org/ns#"
   xmlns:rdf="http://www.w3.org/1999/02/22-rdf-syntax-ns#"
   xmlns:svg="http://www.w3.org/2000/svg"
   xmlns="http://www.w3.org/2000/svg"
   xmlns:sodipodi="http://sodipodi.sourceforge.net/DTD/sodipodi-0.dtd"
   xmlns:inkscape="http://www.inkscape.org/namespaces/inkscape"
   version="1.1"
   id="Layer_3"
   x="0"
   y="0"
   width="100"
   height="100"
   viewBox="0 0 100 100"
   enable-background="new 0 0 100 100"
   xml:space="preserve"
   inkscape:version="0.91 r13725"
   sodipodi:docname="icon-intro_brick-hdpi.svg"><metadata
     id="metadata41"><rdf:RDF><cc:Work
         rdf:about=""><dc:format>image/svg+xml</dc:format><dc:type
           rdf:resource="http://purl.org/dc/dcmitype/StillImage" /><dc:title></dc:title></cc:Work></rdf:RDF></metadata><defs
     id="defs39" /><sodipodi:namedview
     pagecolor="#ffffff"
     bordercolor="#666666"
     borderopacity="1"
     objecttolerance="10"
     gridtolerance="10"
     guidetolerance="10"
     inkscape:pageopacity="0"
     inkscape:pageshadow="2"
     inkscape:window-width="1855"
     inkscape:window-height="1056"
     id="namedview37"
     showgrid="false"
     inkscape:zoom="2.36"
     inkscape:cx="50"
     inkscape:cy="50"
     inkscape:window-x="65"
     inkscape:window-y="24"
     inkscape:window-maximized="1"
     inkscape:current-layer="Layer_3" /><g
     id="g3"><polygon
       opacity="0.2"
       fill="#212121"
       points="50.631,97.793 96.92,78.643 50.744,72.177  "
       id="polygon5" /><g
       id="g7"><path
         fill="#E0E0E0"
         d="M74.176,32.136c0,0,0.141,33.929,0.17,42.841c0.025,8.918,0.025,9.742,0.025,9.742l-23.74,13.074    c0,0-1.092-65.144-0.206-66.489C51.312,29.965,74.176,32.136,74.176,32.136z"
         id="path9" /><path
         fill="#FFFFFF"
         d="M3.08,33.002l47.345-1.698l0.206,66.489c0,0-25.428-2.699-33.79-4.26    c-5.544-1.035-13.463-1.986-13.463-1.986L3.08,33.002z"
         id="path11" /><polygon
         fill="#BDBDBD"
         points="61.728,10.859 62.663,10.853 74.176,32.136 50.425,31.304   "
         id="polygon13" /><polygon
         fill="#FFFFFF"
         points="3.08,33.002 50.425,31.304 61.728,10.859 17.381,13.624   "
         id="polygon15" /><polygon
         fill="#E0E0E0"
         points="17.499,5.499 17.499,13.77 61.728,10.859 61.702,2.22   "
         id="polygon17" /><polygon
         fill="#757575"
         points="74.176,32.136 50.425,31.304 54.785,23.575   "
         id="polygon19" /><g
         id="g21"><path
           fill="#263238"
           d="M16.219,51.756c-0.88-0.508-1.067-1.398-1.227-1.942c-0.229-0.792,0.712-2.725,1.819-3.113     c1.036-0.36,2.764,0.579,3.099,1.719c0.437,1.48-0.474,3.357-1.249,3.617C18.159,52.202,17.059,52.242,16.219,51.756z"
           id="path23" /><path
           fill="#263238"
           d="M30.75,50.069c-0.308-2.031,0.702-3.042,1.845-3.316c1.111-0.268,1.925,0.131,2.602,0.723     c0.713,0.621,0.697,1.481,0.684,1.952c-0.062,2.155-1.189,2.537-2.153,2.844C32.728,52.589,31.027,51.907,30.75,50.069z"
           id="path25" /><path
           fill="#263238"
           d="M38.114,64.363c4.205-4.394,1.68,1.773-0.118,3.992c-0.985,1.221-6.11,8.712-13.734,6.722     c-8.677-2.253-10.878-9.423-11.714-11.609c-0.845-2.201,0.552-1.499,2.159,0.555c1.88,2.067,6.205,5.413,10.366,5.718     c4.471,0.322,8.58-1.506,9.898-2.615C36.269,66.035,38.114,64.363,38.114,64.363L38.114,64.363z"
           id="path27" /></g><g
         id="g29"><path
           fill-rule="evenodd"
           clip-rule="evenodd"
           fill="#1565C0"
           d="M38.704,13.144c0.125,0.516,1.949,7.394,1.714,7.889     c-1.12,2.342-3.356,4.022-5.297,4.66c-2.752,0.887-4.611,0.806-6.141,0.747c-1.572-0.061-2.387-0.093-3.764-1.347     c-0.383-0.349-0.43-0.43-0.562-0.893c-0.227-0.803-1.37-6.413-1.379-6.473c-0.223-0.974,2.325,1.226,3.143,1.331     c0.75,0.093,1.576-0.476,2.319-0.633c1.893-0.394,3.748-0.979,5.673-1.648c1.04-0.365,2.06-0.822,3.056-1.384     C38.052,15.061,38.004,13.264,38.704,13.144z"
           id="path31" /><path
           fill-rule="evenodd"
           clip-rule="evenodd"
           fill="#2196F3"
           d="M23.979,18.644c-1.167-0.794-0.866-2.112-0.1-3.244     c0.931-1.39,2.785-2.247,4.308-2.781c1.605-0.556,3.37-0.771,5.2-0.966c1.283-0.136,3.808-0.105,4.873,0.861     c2.308,2.073-2.717,5.555-4.631,6.215c-2.995,1.034-6.554,1.512-8.901,0.299C24.546,18.938,23.979,18.644,23.979,18.644z"
           id="path33" /></g></g><polygon
       fill="#9D9C9C"
       points="61.728,10.859 62.663,10.853 62.647,2.817 61.704,2.207  "
       id="polygon35" /></g></svg>