<?xml version="1.0" encoding="UTF-8" standalone="no"?>
<!-- Generator: Adobe Illustrator 16.0.0, SVG Export Plug-In . SVG Version: 6.00 Build 0)  -->

<svg
   xmlns:dc="http://purl.org/dc/elements/1.1/"
   xmlns:cc="http://creativecommons.org/ns#"
   xmlns:rdf="http://www.w3.org/1999/02/22-rdf-syntax-ns#"
   xmlns:svg="http://www.w3.org/2000/svg"
   xmlns="http://www.w3.org/2000/svg"
   xmlns:sodipodi="http://sodipodi.sourceforge.net/DTD/sodipodi-0.dtd"
   xmlns:inkscape="http://www.inkscape.org/namespaces/inkscape"
   version="1.1"
   id="Layer_3"
   x="0"
   y="0"
   width="100"
   height="100"
   viewBox="0 0 100 100"
   enable-background="new 0 0 100 100"
   xml:space="preserve"
   inkscape:version="0.91 r13725"
   sodipodi:docname="brick_avatar-mdpi.svg"><metadata
     id="metadata41"><rdf:RDF><cc:Work
         rdf:about=""><dc:format>image/svg+xml</dc:format><dc:type
           rdf:resource="http://purl.org/dc/dcmitype/StillImage" /><dc:title></dc:title></cc:Work></rdf:RDF></metadata><defs
     id="defs39" /><sodipodi:namedview
     pagecolor="#ffffff"
     bordercolor="#666666"
     borderopacity="1"
     objecttolerance="10"
     gridtolerance="10"
     guidetolerance="10"
     inkscape:pageopacity="0"
     inkscape:pageshadow="2"
     inkscape:window-width="1855"
     inkscape:window-height="1056"
     id="namedview37"
     showgrid="false"
     inkscape:zoom="4.72"
     inkscape:cx="41.047169"
     inkscape:cy="51.239376"
     inkscape:window-x="65"
     inkscape:window-y="24"
     inkscape:window-maximized="1"
     inkscape:current-layer="Layer_3" /><rect
     style="color:#000000;clip-rule:nonzero;display:inline;overflow:visible;visibility:visible;opacity:1;isolation:auto;mix-blend-mode:normal;color-interpolation:sRGB;color-interpolation-filters:linearRGB;solid-color:#000000;solid-opacity:1;fill:#2196f3;fill-opacity:1;fill-rule:evenodd;stroke:none;stroke-width:1.07671404px;stroke-linecap:butt;stroke-linejoin:miter;stroke-miterlimit:4;stroke-dasharray:none;stroke-dashoffset:0;stroke-opacity:1;color-rendering:auto;image-rendering:auto;shape-rendering:auto;text-rendering:auto;enable-background:accumulate"
     id="rect3357"
     width="102.88031"
     height="103.10125"
     x="-0.24750917"
     y="-0.52096504" /><g
     id="g3"
     transform="matrix(0.81175372,0,0,0.81175372,17.876409,5.8106192)"><polygon
       points="50.631,97.793 96.92,78.643 50.744,72.177 "
       id="polygon5"
       style="opacity:0.2;fill:#212121" /><g
       id="g7"><path
         d="m 74.176,32.136 c 0,0 0.141,33.929 0.17,42.841 0.025,8.918 0.025,9.742 0.025,9.742 l -23.74,13.074 c 0,0 -1.092,-65.144 -0.206,-66.489 0.887,-1.339 23.751,0.832 23.751,0.832 z"
         id="path9"
         inkscape:connector-curvature="0"
         style="fill:#e0e0e0" /><path
         d="m 3.08,33.002 47.345,-1.698 0.206,66.489 c 0,0 -25.428,-2.699 -33.79,-4.26 C 11.297,92.498 3.378,91.547 3.378,91.547 L 3.08,33.002 Z"
         id="path11"
         inkscape:connector-curvature="0"
         style="fill:#ffffff" /><polygon
         points="74.176,32.136 50.425,31.304 61.728,10.859 62.663,10.853 "
         id="polygon13"
         style="fill:#bdbdbd" /><polygon
         points="61.728,10.859 17.381,13.624 3.08,33.002 50.425,31.304 "
         id="polygon15"
         style="fill:#ffffff" /><polygon
         points="61.728,10.859 61.702,2.22 17.499,5.499 17.499,13.77 "
         id="polygon17"
         style="fill:#e0e0e0" /><polygon
         points="74.176,32.136 50.425,31.304 54.785,23.575 "
         id="polygon19"
         style="fill:#757575" /><g
         id="g21"><path
           d="m 16.219,51.756 c -0.88,-0.508 -1.067,-1.398 -1.227,-1.942 -0.229,-0.792 0.712,-2.725 1.819,-3.113 1.036,-0.36 2.764,0.579 3.099,1.719 0.437,1.48 -0.474,3.357 -1.249,3.617 -0.502,0.165 -1.602,0.205 -2.442,-0.281 z"
           id="path23"
           inkscape:connector-curvature="0"
           style="fill:#263238" /><path
           d="m 30.75,50.069 c -0.308,-2.031 0.702,-3.042 1.845,-3.316 1.111,-0.268 1.925,0.131 2.602,0.723 0.713,0.621 0.697,1.481 0.684,1.952 -0.062,2.155 -1.189,2.537 -2.153,2.844 -1,0.317 -2.701,-0.365 -2.978,-2.203 z"
           id="path25"
           inkscape:connector-curvature="0"
           style="fill:#263238" /><path
           d="m 38.114,64.363 c 4.205,-4.394 1.68,1.773 -0.118,3.992 -0.985,1.221 -6.11,8.712 -13.734,6.722 -8.677,-2.253 -10.878,-9.423 -11.714,-11.609 -0.845,-2.201 0.552,-1.499 2.159,0.555 1.88,2.067 6.205,5.413 10.366,5.718 4.471,0.322 8.58,-1.506 9.898,-2.615 1.298,-1.091 3.143,-2.763 3.143,-2.763 l 0,0 z"
           id="path27"
           inkscape:connector-curvature="0"
           style="fill:#263238" /></g><g
         id="g29"><path
           d="m 38.704,13.144 c 0.125,0.516 1.949,7.394 1.714,7.889 -1.12,2.342 -3.356,4.022 -5.297,4.66 -2.752,0.887 -4.611,0.806 -6.141,0.747 -1.572,-0.061 -2.387,-0.093 -3.764,-1.347 -0.383,-0.349 -0.43,-0.43 -0.562,-0.893 -0.227,-0.803 -1.37,-6.413 -1.379,-6.473 -0.223,-0.974 2.325,1.226 3.143,1.331 0.75,0.093 1.576,-0.476 2.319,-0.633 1.893,-0.394 3.748,-0.979 5.673,-1.648 1.04,-0.365 2.06,-0.822 3.056,-1.384 0.586,-0.332 0.538,-2.129 1.238,-2.249 z"
           id="path31"
           inkscape:connector-curvature="0"
           style="clip-rule:evenodd;fill:#1565c0;fill-rule:evenodd" /><path
           d="m 23.979,18.644 c -1.167,-0.794 -0.866,-2.112 -0.1,-3.244 0.931,-1.39 2.785,-2.247 4.308,-2.781 1.605,-0.556 3.37,-0.771 5.2,-0.966 1.283,-0.136 3.808,-0.105 4.873,0.861 2.308,2.073 -2.717,5.555 -4.631,6.215 -2.995,1.034 -6.554,1.512 -8.901,0.299 -0.182,-0.09 -0.749,-0.384 -0.749,-0.384 z"
           id="path33"
           inkscape:connector-curvature="0"
           style="clip-rule:evenodd;fill:#2196f3;fill-rule:evenodd" /></g></g><polygon
       points="62.647,2.817 61.704,2.207 61.728,10.859 62.663,10.853 "
       id="polygon35"
       style="fill:#9d9c9c" /></g></svg>